PathFileType	4	(X/Y/Z)	C:\Users\willi\Desktop\Data_PaperCallum_v2\17_Akif\Gait04\marker_experimental_temp.trc
DataRate	CameraRate	NumFrames	NumMarkers	Units	OrigDataRate	OrigDataStartFrame	OrigNumFrames
100.000000	100.000000	4	27	mm	100.000000	22	181
Frame#	Time	C7			T10			Clav			Sternum			Right_Back			PCL_CRAN			PCL_RECHTS			PCL_LINKS			RCL_UL_CRAN			RCL_UL_POST			RCL_UL_ANT			RCL_LL_CRAN			RCL_LL_POST			RCL_LL_ANT			Right_Heel			Right_Toe			Right_M5			LCL_UL_CRAN			LCL_UL_POST			LCL_UL_ANT			LCL_LL_CRAN			LCL_LL_POST			LCL_LL_ANT			Left_Heel			Left_Toe			Left_M5			*26			
		X1	Y1	Z1	X2	Y2	Z2	X3	Y3	Z3	X4	Y4	Z4	X5	Y5	Z5	X6	Y6	Z6	X7	Y7	Z7	X8	Y8	Z8	X9	Y9	Z9	X10	Y10	Z10	X11	Y11	Z11	X12	Y12	Z12	X13	Y13	Z13	X14	Y14	Z14	X15	Y15	Z15	X16	Y16	Z16	X17	Y17	Z17	X18	Y18	Z18	X19	Y19	Z19	X20	Y20	Z20	X21	Y21	Z21	X22	Y22	Z22	X23	Y23	Z23	X24	Y24	Z24	X25	Y25	Z25	X26	Y26	Z26	X27	Y27	Z27	

23	0.22	1267.191162109375	1388.723754882813	128.1256713867187	1300.625122070313	1168.89404296875	137.8045501708984	1126.354858398438	1317.268798828125	153.1563720703124	1061.407104492188	1156.936157226563	172.3207855224609	1288.736572265625	1320.80615234375	12.32517242431633	1290.3935546875	1002.002624511719	140.3647003173827	1299.975463867188	942.8209838867189	116.6851654052734	1301.357788085938	942.3819580078126	167.3799743652343	1224.589477539063	710.8507690429689	-33.96742248535164	1253.828735351563	652.9844360351564	-30.68574142456063	1204.364868164063	649.1578979492189	-38.71287918090827	1378.08837890625	392.9640502929688	-21.16249275207528	1437.058349609375	360.8646240234376	-20.18016815185556	1395.126220703125	329.7864379882814	-20.28229522705087	1627.065185546875	156.0528717041017	67.2322998046874	1497.16259765625	31.65668106079111	87.98337554931632	1542.579711914063	20.86641311645517	33.7102165222167	1133.0556640625	734.1547241210939	314.7623291015624	1126.63037109375	670.0648803710939	306.8400268554687	1082.435668945313	692.2341918945314	309.9840698242187	1051.723754882813	367.1416931152344	268.4762878417968	1062.03173828125	303.5398864746094	265.3276062011718	1012.919738769531	315.4457092285157	263.2631835937499	1066.16650390625	27.14076614379889	171.9927062988281	862.7484130859375	43.74119186401372	183.5344543457031	907.031494140625	14.1243400573731	240.070327758789	nan	nan	nan	
24	0.23	1252.898803710938	1389.725463867188	129.7741394042968	1285.774658203125	1169.746459960938	138.8586120605468	1111.7861328125	1318.522705078125	154.0494537353515	1046.289794921875	1158.306762695313	172.6519470214843	1274.875122070313	1322.051391601563	13.98776149749748	1275.05078125	1003.043701171875	140.8727722167968	1284.641723632813	943.7877807617189	117.4530944824218	1286.044067382813	943.5311279296876	168.1565399169921	1205.2548828125	710.1288452148439	-33.71706390380866	1233.192260742188	651.6335449218751	-30.66975212097175	1183.693237304688	648.8029785156251	-38.79047775268562	1354.16845703125	392.7595825195313	-23.58514595031746	1413.89697265625	362.2298889160157	-22.7046546936036	1372.967041015625	330.0280761718751	-22.57303428649911	1610.85009765625	168.7134094238282	64.35298919677724	1492.368774414063	33.77431106567392	87.2510223388671	1536.531982421875	26.48781013488779	32.70512771606436	1118.817993164063	735.7209472656251	315.8958129882812	1113.016723632813	671.6779785156251	307.7741088867187	1068.611572265625	693.5292358398439	311.0341186523437	1041.6162109375	367.5757141113282	269.2997741699218	1053.141845703125	304.3712768554688	266.6931457519531	1003.604187011719	315.2659606933594	263.6593322753906	1065.693969726563	28.34827041625983	172.4575500488281	861.182373046875	39.75259399414067	182.6911621093749	906.3919067382813	12.10037231445318	240.4895324707031	nan	nan	nan	
25	0.24	1238.634643554688	1390.942260742188	131.3969268798827	1271.019897460938	1170.843505859375	139.9205322265624	1097.272338867188	1319.96484375	154.8652954101562	1031.287109375	1159.855590820313	172.9034271240234	1261.087890625	1323.517578125	15.64200592041008	1259.8818359375	1004.302124023438	141.4284057617187	1269.485107421875	944.9846801757814	118.2345733642577	1270.890380859375	944.8807983398439	168.9447326660155	1185.585327148438	709.6486816406251	-33.51781463623054	1212.04296875	650.4512939453126	-30.65971374511726	1162.521362304688	648.7360839843751	-38.88442230224616	1328.7177734375	392.5792541503907	-25.9556369781495	1388.860229492188	363.3668823242188	-25.47047996521005	1349.104125976563	330.2778320312501	-24.69182777404793	1592.830688476563	181.2380371093751	61.4452018737792	1484.898559570313	36.76761245727548	86.11909484863273	1527.713256835938	33.17800903320322	31.17903327941885	1105.151123046875	737.3215332031251	317.0499877929687	1100.164184570313	673.2413330078126	308.7518310546874	1055.511108398438	694.6746215820314	312.2799377441406	1032.42724609375	367.9872741699219	270.1395874023437	1045.234130859375	305.1234130859376	268.0093078613281	995.3989868164063	314.8782043457032	263.9908447265624	1065.203979492188	29.29519462585456	172.8416137695312	859.9934692382813	36.88746643066411	182.1891479492187	905.911865234375	10.89741992950445	241.0742950439453	nan	nan	nan	
26	0.25	1224.403686523438	1392.35498046875	132.9853210449218	1256.370361328125	1172.165893554688	140.9897460937499	1082.821044921875	1321.573974609375	155.6017150878906	1016.412719726562	1161.558837890625	173.0809326171874	1247.376831054688	1325.181396484375	17.28119468688957	1244.90087890625	1005.755920410156	142.032745361328	1254.519409179688	946.3922119140626	119.0241699218749	1255.911254882813	946.4075317382814	169.7389221191405	1165.660400390625	709.4583129882814	-33.36684799194343	1190.505004882813	649.5155029296876	-30.65504455566414	1140.97998046875	649.0129394531251	-38.99568939208991	1301.91552734375	392.4960327148438	-28.2083988189698	1362.177368164063	364.3607177734376	-28.42980957031258	1323.720825195313	330.6038513183594	-26.56621742248543	1573.138549804688	193.2572326660157	58.62427520751943	1474.288330078125	40.59235000610361	84.52108764648429	1515.771362304688	40.72649002075205	29.12271690368643	1092.04541015625	738.9169921875001	318.1843872070312	1088.025634765625	674.7305908203126	309.7167053222656	1043.098510742188	695.6508178710939	313.6486511230468	1024.176025390625	368.3563842773438	270.9577331542968	1038.343627929688	305.7679443359376	269.1879882812499	988.3519897460938	314.2909851074219	264.2741699218749	1064.747680664063	29.9653396606446	173.1102752685546	859.1268310546875	34.99951553344732	181.9079895019531	905.56396484375	10.34814929962164	241.6873931884765	nan	nan	nan	
